<?xml version="1.0" encoding="utf-8"?>
<!-- Generator: Adobe Illustrator 16.0.0, SVG Export Plug-In . SVG Version: 6.00 Build 0)  -->
<!DOCTYPE svg PUBLIC "-//W3C//DTD SVG 1.1//EN" "http://www.w3.org/Graphics/SVG/1.1/DTD/svg11.dtd">
<svg version="1.1" xmlns="http://www.w3.org/2000/svg" xmlns:xlink="http://www.w3.org/1999/xlink" x="0px" y="0px" width="50px"
	 height="50px" viewBox="0 0 50 50" enable-background="new 0 0 50 50" xml:space="preserve">
<g id="colors">
</g>
<g id="Layer_2">
	<g>
		<g>
			<path fill-rule="evenodd" clip-rule="evenodd" fill="#382923" d="M20.4,1.3c0.9,0.4,1.7,0.8,2.5,1.5c0.3,0.2,0.5,0.5,0.8,0.8
				c0.7,0.9,0.7,1.8,0.3,2.8c-0.3,0.7-0.9,1.3-1.4,1.9c-0.4,0.5-0.8,0.9-1.2,1.4c-0.7,1-0.7,1.9,0,2.9c0.3,0.4,0.5,0.8,0.9,1.2
				c-0.7-0.3-1.4-0.6-2-1.1c-0.5-0.3-0.9-0.7-1.2-1.2c-0.5-0.8-0.5-1.7,0-2.5c0.4-0.6,0.9-1.1,1.3-1.7c0.4-0.5,0.8-0.9,1.2-1.4
				c0.6-0.8,0.7-1.7,0.2-2.6c-0.3-0.6-0.8-1.1-1.2-1.7C20.5,1.5,20.4,1.4,20.4,1.3C20.4,1.3,20.4,1.3,20.4,1.3z"/>
			<path fill-rule="evenodd" clip-rule="evenodd" fill="#382923" d="M34.3,32.1c0,3,0,6.1,0,9.1c0,0.6,0,1.3-0.1,1.9
				c-0.2,1.3-0.9,2.2-1.9,2.9c-1.2,0.9-2.5,1.4-3.9,1.8c-1.9,0.5-3.8,0.8-5.8,0.8c-1.5,0-2.9,0-4.4,0c-1.6-0.1-3.2-0.4-4.8-0.8
				c-1.3-0.3-2.6-0.8-3.7-1.5c-0.8-0.5-1.5-1.2-1.9-2.1c-0.3-0.6-0.4-1.2-0.4-1.8c0-5.4,0-10.8,0-16.2c0-1.6,0-3.2,0.1-4.8
				c0-1.1,0.5-2,1.3-2.8c0.9-0.9,1.9-1.4,3.1-1.8c1.6-0.6,3.4-0.9,5.1-1.1c1.8-0.2,3.6-0.3,5.4-0.2c2.6,0.1,5.1,0.5,7.6,1.4
				c1.2,0.4,2.3,1,3.2,2c0.7,0.8,1.1,1.7,1.1,2.8C34.3,25.2,34.4,28.6,34.3,32.1C34.4,32.1,34.4,32.1,34.3,32.1z M21.2,18.2
				C21.2,18.2,21.2,18.3,21.2,18.2c-1,0.1-1.9,0-2.9,0.1c-1.6,0-3.1,0.3-4.6,0.7c-0.5,0.2-1.1,0.3-1.5,0.7c-0.4,0.3-0.4,0.7,0,1
				c0.3,0.2,0.6,0.4,1,0.5c1.8,0.6,3.8,0.9,5.7,0.9c1.8,0,3.5,0,5.3-0.1c1.4,0,2.7-0.3,4-0.7c0.5-0.2,1-0.4,1.4-0.7
				c0.4-0.3,0.4-0.7,0-1c-0.2-0.2-0.5-0.3-0.7-0.4c-1.1-0.5-2.3-0.7-3.5-0.9C24,18.3,22.6,18.3,21.2,18.2z"/>
			<path fill-rule="evenodd" clip-rule="evenodd" fill="#382923" d="M36,40.8c0-1.4,0-2.8,0-4.3c0.5,0,0.9-0.1,1.4-0.1
				c0.7-0.1,1.5-0.2,2.1-0.6c0.9-0.5,1.3-1.3,1.5-2.3c0.1-0.2,0.1-0.5,0.1-0.7c0-1.2,0-2.4,0-3.5c-0.1-1.7-1.2-2.8-2.8-3.1
				c-0.7-0.1-1.4-0.1-2-0.2c0,0-0.1,0-0.2,0c0-1.4,0-2.9,0-4.3c1.8,0.1,3.6,0.3,5.3,1.1c1.9,0.9,3,2.4,3.6,4.4
				c0.5,1.8,0.6,3.6,0.5,5.4c-0.1,1.3-0.3,2.6-0.9,3.8c-0.9,2-2.5,3.2-4.6,3.8c-1.3,0.4-2.5,0.5-3.8,0.5C36.1,40.8,36,40.8,36,40.8z
				"/>
			<path fill-rule="evenodd" clip-rule="evenodd" fill="#382923" d="M17.5,13.8c-0.3-0.1-0.7-0.2-1-0.3c-0.8-0.3-1.7-0.6-2.4-1.2
				c-1.1-0.9-1.4-2.2-0.7-3.5c0.3-0.6,0.8-1.2,1.2-1.7c0.4-0.6,0.8-1.2,1.1-1.9c0.4-0.7,0.2-1.4-0.3-2c-0.1-0.1-0.1-0.2-0.2-0.2
				c1,0.1,2.1,1,2.4,1.9c0.1,0.5,0.1,1-0.1,1.4C17,6.9,16.7,7.4,16.4,8c-0.3,0.5-0.7,1-0.9,1.5c-0.5,1-0.4,2,0.4,2.8
				c0.4,0.4,0.9,0.8,1.4,1.2C17.4,13.6,17.4,13.6,17.5,13.8C17.5,13.7,17.5,13.7,17.5,13.8z"/>
			<path fill-rule="evenodd" clip-rule="evenodd" fill="#382923" d="M27.8,13.7c-0.3-0.1-0.7-0.2-1-0.4c-0.4-0.3-0.8-0.6-1.2-0.9
				c-0.7-0.6-0.8-1.6-0.4-2.2c0.3-0.5,0.6-1,1-1.4c0.4-0.6,1-1.1,1.4-1.6c0.6-0.7,0.8-1.5,0.3-2.4c0,0,0-0.1,0-0.1c0,0,0,0,0-0.1
				c0,0,0,0,0.1,0c0.8,0.5,1.4,1.1,1.6,2c0.1,0.7,0,1.3-0.4,1.8C28.7,9,28.2,9.5,27.8,10c-0.5,0.6-0.8,1.4-0.6,2.2
				c0.1,0.4,0.4,0.9,0.6,1.3C27.8,13.6,27.8,13.6,27.8,13.7C27.8,13.7,27.8,13.7,27.8,13.7z"/>
			<path fill-rule="evenodd" clip-rule="evenodd" fill="#E2B524" d="M21.2,18.2c1.4,0.1,2.8,0.1,4.2,0.2c1.2,0.1,2.4,0.4,3.5,0.9
				c0.3,0.1,0.5,0.2,0.7,0.4c0.4,0.3,0.4,0.7,0,1c-0.5,0.3-0.9,0.5-1.4,0.7c-1.3,0.4-2.6,0.7-4,0.7c-1.8,0-3.5,0.1-5.3,0.1
				c-1.9,0-3.9-0.3-5.7-0.9c-0.3-0.1-0.7-0.3-1-0.5c-0.4-0.3-0.4-0.7,0-1c0.4-0.4,1-0.5,1.5-0.7c1.5-0.4,3-0.7,4.6-0.7
				C19.2,18.3,20.2,18.3,21.2,18.2C21.2,18.3,21.2,18.2,21.2,18.2z"/>
		</g>
	</g>
</g>
</svg>
